<svg width="82" height="28" viewBox="0 0 82 28" fill="none" xmlns="http://www.w3.org/2000/svg">
<path d="M2.66543 26V8.64H7.39043V26H2.66543ZM5.04543 6.33C4.1821 6.33 3.47043 6.085 2.91043 5.595C2.37376 5.08167 2.10543 4.44 2.10543 3.67C2.10543 2.9 2.37376 2.25833 2.91043 1.745C3.47043 1.23167 4.1821 0.974999 5.04543 0.974999C5.90876 0.974999 6.60876 1.23167 7.14543 1.745C7.6821 2.25833 7.95043 2.9 7.95043 3.67C7.95043 4.44 7.6821 5.08167 7.14543 5.595C6.60876 6.085 5.90876 6.33 5.04543 6.33ZM27.9857 26L36.1407 1.5H43.1407L51.2257 26H46.2207L39.6757 5.105H39.5707L32.9207 26H27.9857ZM31.9407 19.42L33.2007 15.745H45.6607L46.8857 19.42H31.9407ZM53.1764 26V1.5H59.2314L66.4064 17.425H66.4764L73.5814 1.5H79.6014V26H74.8764V9.095H74.7714L68.6114 22.5H64.1314L58.0064 9.095H57.9014V26H53.1764Z" fill="white"/>
<path d="M10.2563 26V22.36L21.3863 5.42H10.3263V1.5H26.8463V5.14L15.6463 22.08H26.8813V26H10.2563Z" fill="#48A74C"/>
</svg>
